<svg width="96" height="96" xmlns="http://www.w3.org/2000/svg" xmlns:xlink="http://www.w3.org/1999/xlink" overflow="hidden"><defs><clipPath id="clip0"><rect x="174" y="140" width="96" height="96"/></clipPath></defs><g clip-path="url(#clip0)" transform="translate(-174 -140)"><path d="M252.6 171.4C265.6 156.8 260.9 151.7 260.9 151.7 259.3 150.1 256.8 150.1 255.2 151.7L217.3 189.6 184.3 220.4C182 222.7 182 226.5 184.3 228.9 186.6 231.2 190.4 231.2 192.8 228.9L222.9 195.9C224.4 196.6 228.4 198.6 229.6 197.3L252.6 171.4Z" fill="#FCBF49"/><path d="M262.8 220.4 236.5 195.5 232.5 200C231.8 200.7 230.6 201.6 228.7 201.7L254.4 228.9C256.8 231.2 260.6 231.2 262.9 228.9 265.1 226.5 265.1 222.7 262.8 220.4Z" fill="#FCBF49"/><path d="M209.9 187.6C209.9 187.6 211.7 187.2 213.7 187.5L214.5 186.7 221.4 179.8C221.1 177.9 221.5 176 221.5 176 222.2 171.7 220.5 166.7 215.4 161.6 207 153.2 195 145.4 195 145.4L193.2 147.2 213.4 167.4C214 168 214 168.9 213.4 169.5 212.8 170.1 211.9 170.1 211.3 169.5L191.1 149.3 188.3 152.1 208.5 172.3C209.1 172.9 209.1 173.8 208.5 174.4 207.9 175 207 175 206.4 174.4L186.2 154.2 183.4 157 203.6 177.2C204.2 177.8 204.2 178.7 203.6 179.3 203 179.9 202.1 179.9 201.5 179.3L181.2 159.2 179.4 161C179.4 161 187.9 173.8 195.5 181.5 200.6 186.6 205.6 188.3 209.9 187.6Z" fill="#FCBF49"/></g></svg>